. 
  
http://www.torrentday.com/        :     The Hottest Private Tracker On The Net!!!


               www . TorrentDay . Com 
(((((((((((((= Enjoy No RAR releases =))))))))))))))))))))


...................................NFO:....................................

.[img]http://leetleech.org/images/76541870044773766382.png[/img] 

[b]The Joneses 2009 480p BRRip XviD AC3-LEGi0N

[img]http://leetleech.org/images/48874973695367351744.png[/img]
[color=red]General[/color]
Format:AVI 
File size: 1.44 GiB
Duration: 1h 35mn
Overall bit rate: 2 158 Kbps
IMDB Rating: 6.5/10   659 votes
Genre: Drama 
Release Date: 16 April 2010             
IMDb Link: http://www.imdb.com/title/tt1285309/
Source: 720p Bluray x264-MACHD 

[color=red]Video[/color]
Format: MPEG-4 Visual
Format profile: Streaming Video@L1
Format settings, BVOP: Yes
Format settings, QPel: No
Format settings, GMC: No warppoints
Format settings, Matrix: Default (H.263)
Muxing mode: Packed bitstream
Codec ID: XVID
Bit rate: 1 701 Kbps
Width: 720 pixels
Height: 304 pixels
Display aspect ratio: 2.35
Frame rate: 23.976 fps
Resolution: 24 bits
Colorimetry: 4:2:0
Scan type: Progressive
Bits/(Pixel*Frame): 0.324
Stream size: 1.14 GiB (79%)

[color=red]Audio[/color]
Format: AC-3
Bit rate mode: Constant
Bit rate: 448 Kbps
Channel(s): 6 channels
Sampling rate: 48.0 KHz
Stream size: 307 MiB (21%) 

[img]http://leetleech.org/images/89524873606771859129.png[/img]
A seemingly perfect family moves into a suburban neighborhood, 
but when it comes to the truth as to why they're living there, 
they don't exactly come clean with their neighbors.          
                                   
[img]http://leetleech.org/images/84434050717770922575.png[/img]
Amber Heard	 ... 	Jenn
Demi Moore	... 	Kate
David Duchovny	... 	Steve
Gary Cole	... 	Larry
Glenne Headly	... 	Summer
Ben Hollingsworth	... 	Mick Jones
Sonya Thompson	... 	Restaurant Patron
Lauren Hutton	... 	KC
Chris Williams	... 	Billy
Catherine Dyer	... 	Sylivia
Christine Evangelista	... 	Naomi
Robert Pralgo	... 	Alex 'The Hammer' Bayner
Ashley LeConte Campbell	... 	Mary Beth
Kim Wall	... 	Bethany
Wilbur Fitzgerald	... 	Golfer
Ric Reitz	... 	Bob
Mark Oliver	... 	Man #1
Tiffany Morgan	... 	Melanie Baynor
Andrew DiPalma	... 	Will
Justin Price	... 	Skateboarder / high school Jock
Carlotta Montanari	... 	Voiceover / Dubbing
Jason MacDonald	... 	Guy #2
Niko Stjepanovic	... 	Harry Woods
Ron Clinton Smith	... 	Policeman 

[color=red]GREETZ[/color]
Noir | xXTHORNXx | bigimac | LUSi |

kempas | KaN1vE | mike160 | skillz |

Lungbuster | Sheikh | DiLLoN1369  |

0B5C3N3 | FLAWL3SS | AND ALL P2P![/b]

[color=red]SAMPLE INCLUDED[/color]

[img]http://leetleech.org/images/95521316153253938506.png[/img]
[img]http://leetleech.org/images/15867002059500086538.png[/img]
[img]http://leetleech.org/images/95385451204166696836.png[/img] 
[img]http://leetleech.org/images/98478939789202796306.png[/img] 
[img]http://leetleech.org/images/00819935121625491857.png[/img]
[img]http://leetleech.org/images/90594688646809591031.png[/img]
[img]http://leetleech.org/images/12755021538703799215.png[/img]